<?xml version="1.0" encoding="UTF-8"?>
<svg id="_レイヤー_2" data-name="レイヤー 2" xmlns="http://www.w3.org/2000/svg" xmlns:xlink="http://www.w3.org/1999/xlink" viewBox="0 0 320 60">
  <defs>
    <style>
      .cls-1 {
        fill: #3d7663;
      }

      .cls-2 {
        clip-path: url(#clippath);
      }

      .cls-3 {
        fill: none;
      }
    </style>
    <clipPath id="clippath">
      <rect class="cls-3" width="320" height="60"/>
    </clipPath>
  </defs>
  <g id="_レイヤー_1-2" data-name="レイヤー 1">
    <g class="cls-2">
      <path class="cls-1" d="m43.31,37.8c0,9.28-7.52,16.81-16.81,16.81s-16.81-7.52-16.81-16.81S26.92,4.61,26.92,4.61c0,0,16.39,23.91,16.39,33.19Z"/>
      <g>
        <path d="m93.64,12.29c-4.36.35-4.78.6-4.78,4.96v20.46c0,4.36.46,4.64,4.78,4.99v1.48h-14.59v-1.48c4.54-.35,4.96-.63,4.96-4.99v-10.05h-18.04v10.05c0,4.32.42,4.64,4.78,4.99v1.48h-14.31v-1.48c4.22-.35,4.61-.63,4.61-4.99v-20.46c0-4.36-.39-4.61-4.75-4.96v-1.55h14.17v1.55c-4.08.35-4.5.6-4.5,4.96v8.09h18.04v-8.09c0-4.32-.42-4.61-4.61-4.96v-1.55h14.24v1.55Z"/>
        <path d="m120.82,23.11c-2.78.42-3.23.84-4.64,3.8-1.3,2.6-2.99,6.93-6.61,15.26-3.55,8.19-4.68,11.11-5.55,14.03-.25.98-.91,1.23-1.62,1.23-1.51,0-3.13-1.27-3.13-2.64,0-.84.46-1.3,1.34-1.9,1.79-1.05,2.81-2.21,4.08-4.54.91-1.69,1.34-2.71,1.55-3.3.32-.77.21-1.48-.11-2.32-2.21-6.08-4.64-12.48-6.08-15.86-1.12-2.67-1.69-3.34-4.5-3.76v-1.37h11.04l.07,1.37c-2.43.42-2.74.88-2.07,2.74l4.71,12.59c1.41-3.23,3.66-9.32,4.68-12.41.67-1.9.25-2.5-2.67-2.92v-1.37h9.53v1.37Z"/>
        <path d="m147.26,42.84c-1.12.21-5.2.88-8.51,1.93v-3.3l-3.09,1.83c-2.07,1.2-3.45,1.48-4.01,1.48-4.36,0-9.95-3.73-9.95-10.93s6.4-12.69,13.68-12.69c.74,0,2.11.14,3.38.56v-7.24c0-3.34-.35-3.48-4.04-3.73v-1.34c2.92-.35,6.5-1.12,8.58-1.79v30.48c0,2.81.39,3.06,2.5,3.27l1.48.14v1.34Zm-8.51-17.05c-1.27-1.79-3.3-2.67-5.31-2.67-2.21,0-6.57,1.86-6.57,9.32,0,6.15,3.9,8.96,7.14,8.96,1.72,0,3.48-.77,4.75-1.62v-13.99Z"/>
        <path d="m157.73,26.7c1.72-2.81,3.87-5.55,6.29-5.55,1.9,0,3.16,1.37,3.16,2.64,0,1.2-.7,2.25-1.83,2.78-.63.25-1.09.14-1.41-.14-.81-.74-1.41-1.05-2.29-1.05-1.34,0-2.92,1.51-4.04,4.25v9.18c0,3.38.25,3.69,4.32,4.01v1.37h-12.48v-1.37c3.16-.32,3.62-.63,3.62-4.01v-10.65c0-3.27-.28-3.48-3.2-3.9v-1.16c2.6-.42,5.06-1.02,7.73-2.11v5.73h.11Z"/>
        <path d="m181.25,21.15c6.68,0,11.6,5.17,11.6,11.39,0,8.3-6.33,12.23-11.64,12.23-7.49,0-11.85-5.62-11.85-11.29,0-8.4,6.89-12.34,11.85-12.34h.04Zm-.67,1.72c-3.02,0-5.84,3.06-5.84,8.86,0,6.5,2.81,11.25,7.03,11.25,3.02,0,5.73-2.04,5.73-9.25,0-6.15-2.46-10.86-6.86-10.86h-.07Z"/>
        <path d="m214.97,18.79c-.91-3.3-2.53-7.03-6.96-7.03-3.94,0-5.8,2.78-5.8,5.59,0,3.62,2.43,5.38,6.71,7.45,4.46,2.18,9.11,4.61,9.11,10.27s-4.71,9.91-11.88,9.91c-2.18,0-3.94-.39-5.27-.84-1.34-.42-2.07-.84-2.6-1.09-.35-1.02-1.12-5.7-1.44-8.19l1.58-.46c.88,3.27,3.45,8.65,8.82,8.65,3.83,0,6.08-2.36,6.08-6.05s-2.81-5.48-6.82-7.59c-3.66-1.83-8.68-4.39-8.68-10.05,0-5.13,4.15-9.39,11-9.39,2.5,0,4.85.6,6.82,1.23.21,1.83.46,3.94.91,7.31l-1.58.28Z"/>
        <path d="m232.23,44.07c-.95.53-1.76.7-2.21.7-3.48,0-5.41-1.97-5.41-6.12v-14.77h-3.55l-.25-.6,1.44-1.55h2.36v-3.73l3.83-3.59.7.14v7.17h5.84c.53.56.35,1.69-.35,2.14h-5.48v12.97c0,4.15,1.79,4.85,3.09,4.85,1.23,0,2.39-.49,3.16-.88l.46,1.41-3.62,1.83Z"/>
        <path d="m249.91,21.15c6.68,0,11.6,5.17,11.6,11.39,0,8.3-6.33,12.23-11.64,12.23-7.49,0-11.85-5.62-11.85-11.29,0-8.4,6.89-12.34,11.85-12.34h.04Zm-.67,1.72c-3.02,0-5.84,3.06-5.84,8.86,0,6.5,2.81,11.25,7.03,11.25,3.02,0,5.73-2.04,5.73-9.25,0-6.15-2.46-10.86-6.86-10.86h-.07Z"/>
        <path d="m273.29,26.7c1.72-2.81,3.87-5.55,6.29-5.55,1.9,0,3.16,1.37,3.16,2.64,0,1.2-.7,2.25-1.83,2.78-.63.25-1.09.14-1.41-.14-.81-.74-1.41-1.05-2.29-1.05-1.34,0-2.92,1.51-4.04,4.25v9.18c0,3.38.25,3.69,4.32,4.01v1.37h-12.48v-1.37c3.16-.32,3.62-.63,3.62-4.01v-10.65c0-3.27-.28-3.48-3.2-3.9v-1.16c2.6-.42,5.06-1.02,7.73-2.11v5.73h.11Z"/>
        <path d="m304.05,39.6c-3.38,4.25-7.14,5.17-8.82,5.17-6.43,0-10.23-5.17-10.23-10.9,0-3.41,1.23-6.5,3.34-8.79,2.25-2.46,5.1-3.94,7.88-3.94h.04c4.46,0,8.02,3.83,8.02,7.91,0,.98-.28,1.44-1.23,1.65-.95.14-7.49.67-13.54.88.11,6.64,4.01,9.46,7.63,9.46,2.14,0,4.15-.81,6.05-2.57l.88,1.12Zm-9.07-16.52c-2.25,0-4.5,2-5.24,6.29,2.78,0,5.55,0,8.47-.11.91-.04,1.23-.32,1.23-.98,0-2.71-1.69-5.2-4.43-5.2h-.04Z"/>
      </g>
    </g>
  </g>
</svg>